<svg width="395" height="239" viewBox="0 0 395 239" fill="none" xmlns="http://www.w3.org/2000/svg">
<foreignObject x="-31.5" y="-32" width="458" height="303"><div xmlns="http://www.w3.org/1999/xhtml" style="backdrop-filter:blur(16px);clip-path:url(#bgblur_0_4118_11532_clip_path);height:100%;width:100%"></div></foreignObject><path data-figma-bg-blur-radius="32" d="M197.5 0C214.976 0.000152002 229.762 9.76203 234.684 23.2041C236.583 28.3902 240.905 33 246.428 33H378.5C387.336 33.0002 394.5 40.1636 394.5 49V223C394.5 231.836 387.336 239 378.5 239H16.5C7.66344 239 0.5 231.837 0.5 223V49C0.500002 40.1634 7.66345 33 16.5 33H148.571C154.094 33 158.416 28.3902 160.315 23.2041C165.238 9.76193 180.024 0 197.5 0Z" fill="#1D1B20" fill-opacity="0.4"/>
<defs>
<clipPath id="bgblur_0_4118_11532_clip_path" transform="translate(31.5 32)"><path d="M197.5 0C214.976 0.000152002 229.762 9.76203 234.684 23.2041C236.583 28.3902 240.905 33 246.428 33H378.5C387.336 33.0002 394.5 40.1636 394.5 49V223C394.5 231.836 387.336 239 378.5 239H16.5C7.66344 239 0.5 231.837 0.5 223V49C0.500002 40.1634 7.66345 33 16.5 33H148.571C154.094 33 158.416 28.3902 160.315 23.2041C165.238 9.76193 180.024 0 197.5 0Z"/>
</clipPath></defs>
</svg>
