<svg width="112" height="24" viewBox="0 0 112 24" fill="none" xmlns="http://www.w3.org/2000/svg">
<path d="M7.49846 19.8782H0V0.292327H7.49846C13.796 0.292327 17.6624 3.94641 17.6624 10.0853C17.6624 16.2241 13.796 19.8782 7.49846 19.8782ZM7.43988 4.23873H4.39363V15.9318H7.43988C11.4234 15.9318 12.9466 14.7332 12.9466 10.0853C12.9466 5.43727 11.4234 4.23873 7.43988 4.23873Z" fill="white"/>
<path d="M44.4908 20.1705C38.7205 20.1705 36.055 17.8319 36.055 13.5055V13.1255H40.3608V13.4178C40.3608 15.581 41.1516 16.1949 44.6958 16.1949C47.1855 16.1949 47.8006 15.6979 47.8006 14.3825C47.8006 13.067 47.5077 12.5993 44.7544 12.1315L41.2981 11.5177C37.5488 10.8745 35.9671 8.97442 35.9671 5.93422C35.9671 2.95249 38.1639 0 43.7878 0C49.3823 0 51.7256 2.89403 51.7256 6.78197V7.01583H47.3906V6.69428C47.3906 4.64799 46.5411 3.97564 43.6413 3.97564C41.1223 3.97564 40.3315 4.53106 40.3315 5.75883C40.3315 7.01583 40.8587 7.30816 43.1434 7.74665L46.629 8.419C50.759 9.20828 52.165 11.3715 52.165 14.2363C52.165 17.3642 50.056 20.1705 44.4908 20.1705Z" fill="white"/>
<path d="M62.8743 20.1705C57.0161 20.1705 53.4426 16.1949 53.4426 10.0853C53.4426 3.97564 57.0161 0 62.8743 0C68.7325 0 72.2766 3.97564 72.2766 10.0853C72.2766 14.3825 70.5192 17.6273 67.473 19.1766L70.9293 24H65.2468L62.9036 20.1705H62.8743ZM62.8743 15.9318C66.2427 15.9318 67.5901 14.6748 67.5901 10.0853C67.5901 5.49574 66.2427 4.23873 62.8743 4.23873C59.5058 4.23873 58.1292 5.49574 58.1292 10.0853C58.1292 14.6748 59.5058 15.9318 62.8743 15.9318Z" fill="white"/>
<path d="M82.8055 20.1705C76.9474 20.1705 73.3739 16.1949 73.3739 10.0853C73.3739 3.97564 76.9474 0 82.8055 0C88.6637 0 92.2079 3.97564 92.2079 10.0853C92.2079 16.1949 88.6637 20.1705 82.8055 20.1705ZM82.8055 15.9318C86.174 15.9318 87.5214 14.6748 87.5214 10.0853C87.5214 5.49574 86.174 4.23873 82.8055 4.23873C79.4371 4.23873 78.0604 5.49574 78.0604 10.0853C78.0604 14.6748 79.4371 15.9318 82.8055 15.9318Z" fill="white"/>
<path d="M102.598 20.1705C96.7395 20.1705 93.166 16.1949 93.166 10.0853C93.166 3.97564 96.7395 0 102.598 0C108.456 0 112 3.97564 112 10.0853C112 16.1949 108.456 20.1705 102.598 20.1705ZM102.598 15.9318C105.966 15.9318 107.313 14.6748 107.313 10.0853C107.313 5.49574 105.966 4.23873 102.598 4.23873C99.2292 4.23873 97.8525 5.49574 97.8525 10.0853C97.8525 14.6748 99.2292 15.9318 102.598 15.9318Z" fill="white"/>
<path fill-rule="evenodd" clip-rule="evenodd" d="M34.0607 19.8507H29.0964C22.7989 19.8507 18.9325 16.1967 18.9325 10.0578C18.9325 3.91896 22.7989 0.264881 29.0964 0.264881H34.0607V4.21129H30.1681H29.155C25.1714 4.21129 23.6483 5.40982 23.6483 10.0578C23.6483 14.7058 25.1714 15.9043 29.155 15.9043H32.2012H34.0607V19.8507Z" fill="white"/>
<path d="M23.6483 7.76984H33.6941V11.8314H23.6483V7.76984Z" fill="white"/>
</svg>
